Coordinates
version=1
nRows=11
nColumns=40
inDegrees=yes

Units are S.I. units (second, meters, Newtons, ...)
Angles are in degrees.

endheader
time	pelvis_tilt	pelvis_list	pelvis_rotation	pelvis_tx	pelvis_ty	pelvis_tz	hip_flexion_r	hip_adduction_r	hip_rotation_r	knee_angle_r	knee_angle_r_beta	ankle_angle_r	subtalar_angle_r	mtp_angle_r	hip_flexion_l	hip_adduction_l	hip_rotation_l	knee_angle_l	knee_angle_l_beta	ankle_angle_l	subtalar_angle_l	mtp_angle_l	lumbar_extension	lumbar_bending	lumbar_rotation	arm_flex_r	arm_add_r	arm_rot_r	elbow_flex_r	pro_sup_r	wrist_flex_r	wrist_dev_r	arm_flex_l	arm_add_l	arm_rot_l	elbow_flex_l	pro_sup_l	wrist_flex_l	wrist_dev_l
     48.73000000	     -5.87924886	     -3.97868817	     -9.14720701	      0.99642038	      0.92439035	      0.48161353	     20.99083520	      2.62143263	     -5.15258739	     22.62083827	     22.62083827	      8.61956631	      1.28602410	     -0.74850218	     -0.75025316	     -6.97589888	    -14.55954695	     18.64280728	     18.64280728	     18.79908061	     -7.62999109	     -0.81349041	     -8.43857716	      7.01567294	      1.16187474	    -16.25307621	    -12.51866231	     -8.83240316	     25.17012729	     46.38745254	      0.00000000	      0.00000000	     38.50872716	    -21.41806015	    -11.09068732	     74.21958347	     48.39040250	      0.00000000	      0.00000000
     48.74942857	     -6.06642841	     -4.19209621	     -8.80583931	      0.99721333	      0.92515535	      0.48585035	     20.32370622	      3.03243952	     -5.62099684	     22.01232798	     22.01232798	      8.91018817	      1.61168444	     -0.21294358	     -0.44910332	     -7.79961086	    -14.69570892	     19.71712707	     19.71712707	     18.57034344	     -7.02113949	     -1.39909527	     -8.26180952	      7.13631189	      0.88795295	    -15.05676538	    -12.75082095	     -8.80919555	     25.12465857	     46.40388052	      0.00000000	      0.00000000	     38.03159862	    -21.06758069	    -11.34170388	     73.92157256	     48.38531147	      0.00000000	      0.00000000
     48.76885714	     -6.12187213	     -4.20142544	     -8.48376515	      0.99793798	      0.92594198	      0.48985486	     19.67009828	      3.22814948	     -5.87955462	     21.62844583	     21.62844583	      9.22300421	      1.66206655	     -0.14173341	     -0.27268366	     -8.24659779	    -14.40126370	     20.66502100	     20.66502100	     18.13045641	     -7.19701136	     -1.53878606	     -8.25075072	      7.02148227	      0.95469437	    -14.09445772	    -12.89322671	     -8.79652833	     25.33882702	     46.40411986	      0.00000000	      0.00000000	     37.57206575	    -20.49784452	    -11.22091121	     73.73347616	     48.36679323	      0.00000000	      0.00000000
     48.78828571	     -6.26234396	     -4.28931169	     -8.10205329	      0.99845003	      0.92639253	      0.49372296	     19.07897979	      3.50263901	     -6.27250430	     21.18332664	     21.18332664	      9.56019745	      1.68600348	     -0.06560532	      0.26877268	     -8.86217520	    -14.02209217	     22.07549241	     22.07549241	     17.72737737	     -7.56042902	     -2.05387985	     -8.10955423	      7.01263670	      0.94246283	    -12.97491997	    -13.05091562	     -8.77619625	     25.44329786	     46.41091717	      0.00000000	      0.00000000	     36.89653957	    -19.94526228	    -11.26579996	     73.26987404	     48.35071627	      0.00000000	      0.00000000
     48.80771429	     -6.11007786	     -4.04553827	     -7.77946195	      0.99911410	      0.92721878	      0.49736737	     18.36140916	      3.39928579	     -6.37083108	     21.02786984	     21.02786984	     10.04179298	      1.58454333	     -0.14499614	      0.38740764	     -9.01447106	    -13.78413133	     23.18499650	     23.18499650	     17.13499852	     -7.71264593	     -2.18641196	     -8.29905765	      6.63035477	      1.18234854	    -11.85341481	    -13.11618544	     -8.75347460	     25.77645156	     46.40577054	      0.00000000	      0.00000000	     35.98805204	    -19.15901434	    -11.04139310	     72.89546075	     48.32069852	      0.00000000	      0.00000000
     48.82714286	     -6.22925893	     -4.44017526	     -7.28838198	      0.99911418	      0.92713757	      0.50109081	     17.76974383	      3.99282063	     -6.83352985	     20.61932768	     20.61932768	     10.29018599	      1.52145828	     -0.11507201	      1.71893020	    -10.11453380	    -12.82796853	     26.04550903	     26.04550903	     16.51135758	     -8.82739673	     -3.32357210	     -8.17184547	      6.90544569	      1.01734627	    -10.36019781	    -13.28480777	     -8.71876760	     25.90113075	     46.41398240	      0.00000000	      0.00000000	     35.14054402	    -18.54649413	    -11.16370111	     71.97555165	     48.30139134	      0.00000000	      0.00000000
     48.84657143	     -6.20912543	     -4.48131339	     -6.83494395	      0.99925189	      0.92714910	      0.50456888	     17.23761865	      4.24199589	     -6.84462262	     20.52384194	     20.52384194	     10.68253592	      0.94924761	     -0.14524280	      2.65541730	    -10.66000928	    -11.84012606	     28.10474547	     28.10474547	     13.62764382	    -10.98910506	     -8.57617888	     -8.01384464	      6.84925707	      0.64067422	     -7.83251339	    -13.31212806	     -8.38947130	     24.01895115	     46.50915152	      0.00000000	      0.00000000	     34.11141837	    -17.40749022	    -12.63278505	     69.84196766	     48.31540693	      0.00000000	      0.00000000
     48.86600000	     -6.04594305	     -4.60119682	     -6.34494481	      0.99925708	      0.92705897	      0.50800599	     16.61251712	      4.50666197	     -7.09073301	     20.55455858	     20.55455858	     11.22413420	      0.70431535	     -0.29569114	      3.97652114	    -11.40908147	    -10.83727331	     31.30242068	     31.30242068	     12.51768909	    -12.04566342	     -9.47717250	     -8.19727242	      6.80313363	      0.68860081	     -6.23278540	    -13.33863179	     -8.38211508	     24.51590274	     46.50427826	      0.00000000	      0.00000000	     32.75254078	    -16.60896704	    -12.31576607	     68.98195618	     48.26158004	      0.00000000	      0.00000000
     48.88542857	     -5.88316281	     -4.64980204	     -5.83429952	      0.99907626	      0.92664772	      0.51127453	     16.21805724	      4.73301307	     -7.04976414	     20.93941534	     20.93941534	     11.69466279	     -0.21123110	     -0.33698752	      5.48816898	    -11.97992107	     -9.48818152	     34.58810116	     34.58810116	      9.83101358	    -14.41677585	    -12.89211040	     -8.18430323	      6.72504344	      0.38785789	     -3.99865403	    -13.28835495	     -8.25097309	     24.30042441	     46.53374813	      0.00000000	      0.00000000	     31.51721511	    -15.90471888	    -12.44745281	     66.43804954	     48.18925259	      0.00000000	      0.00000000
     48.90485714	     -5.62747900	     -4.84594986	     -5.29019252	      0.99880149	      0.92608064	      0.51452005	     15.68237461	      5.05578838	     -7.30815668	     21.26212713	     21.26212713	     12.23756713	     -0.59951728	     -0.49891146	      7.30329598	    -12.79975065	     -8.16977382	     38.64993016	     38.64993016	      8.17009982	    -15.48192968	    -13.70630360	     -8.41408083	      6.75448270	      0.50245348	     -2.18471139	    -13.28384312	     -8.21897044	     24.81383781	     46.52806092	      0.00000000	      0.00000000	     29.94609834	    -14.89716572	    -12.14279657	     65.11000084	     48.12607344	      0.00000000	      0.00000000
     48.92428571	     -5.26079565	     -5.05464581	     -4.74037662	      0.99837058	      0.92527364	      0.51767813	     15.23054367	      5.39049377	     -7.48350576	     21.93248506	     21.93248506	     12.86998036	     -1.26549492	     -0.70705713	      9.20091685	    -13.53777583	     -6.66396188	     42.92257607	     42.92257607	      6.29413001	    -16.61414439	    -14.17683047	     -8.76989482	      6.74654151	      0.49859938	     -0.06634512	    -13.26422047	     -8.17779246	     25.44526508	     46.51858997	      0.00000000	      0.00000000	     28.34265018	    -14.00983937	    -11.85118939	     63.33482668	     48.05813901	      0.00000000	      0.00000000
